<?xml version="1.0" encoding="utf-8"?>
<!-- Generator: Adobe Illustrator 23.0.2, SVG Export Plug-In . SVG Version: 6.00 Build 0)  -->
<svg version="1.1" id="Layer_1" xmlns="http://www.w3.org/2000/svg" xmlns:xlink="http://www.w3.org/1999/xlink" x="0px" y="0px"
	 viewBox="0 0 256 256" style="enable-background:new 0 0 256 256;" xml:space="preserve">
<style type="text/css">
	.st0{fill:#2C2E30;}
	.st1{fill:#00DCA4;}
	.st2{fill:#FF5C5B;}
</style>
<g>
	<path class="st1" d="M227.8,129.8l-1.5,2.4l-0.5,0.5l-5.4,8.3l-17.1,19l-5.9,12.2l-10.2,15.6l-1,1v2.4l-11.2,13.2l-20.5,17.6
		l-25.4,11.7l-11.7,3.4h13.2l4.9-1h3.9l-8.3,2v1.5l21-2l12.7-4.4l10.7-6.3h2.9l-5.9,2.9l-5.4,5.4l-16.1,6.3l-21.5,2.4l-29.3-3.4V239
		h-6.3l1.5-1h-2.4l-2-1h-2l-20.5-7.8l1.5-1h-4.9l-2.4-2.9l5.9,2.4l-3.4-3.9l1-1h-3.9v-2h-2l-8.3-5.9h-3.9v-1h-1.5l-3.4-2h-2.9v-2.4
		h-2.9l1-2l-2,1l-1.5-1v-0.5h-1l-11.7-10.2v-1.5h-1l-8.8-8.8h-2l12.7,16.1v2l-9.3-9.3l-1.5-2.4l-3.4-3.4l-7.8-19l-2-54.1L3,102
		l5.9-14.1L22,62l16.1-18.5l19-16.1l21-10.7l21-4.9h22.4l-24.9,2.9l-2.4,2.4h-2.9l-1,1h-1.5v0.5h6.8l2-0.5h2.9l2-1h3.9l8.3-1h24.9
		l11.2-3.9l14.1-2h28.8l22.9,7.8h2l2,2l-2,1l1,1l-1,1h2.9l1,1l-1,1l1,1l2-1l2,2.4v0.5l-2.4-1v1l5.4,7.8l7.3,7.3l7.3,11.2l4.9,15.1
		v21.5l-2.9,13.7l-6.3,16.6l-8.3,14.6l-7.3,7.3l-2.4,1l11.2-17.1l5.9-14.1v-1l-2,3.4h-2l5.4-16.6l-1.5-26.3l-1,24.9l-3.9,11.2
		l-1.5-1.5l-8.3,19.5l-9.3,13.7l-3.9,4.9l-3.4,5.9v2.4h2l15.1-19l1-2L227.8,129.8z M24.5,194.1h1L12.3,179l-2.9-4.4v-1.5H8.9v-3.9
		H6.4v-3.4l-1-2.9V159l-1-1.5l-1-5.4h-1L4,169.7l3.4,7.3l1.5,1l4.4,5.9L24.5,194.1z M23.5,117.1l2-13.2l-2,4.9V117.1z M26,138
		l-1.5-14.1l-1,1v6.3L26,138z M41.6,159h1l-7.3-8.3L29.9,139l-2.4-2.4v5.4l4.4,7.3L41.6,159z M102.5,183.9h22.9l16.6-5.4l12.7-7.8
		l5.4-2.4l13.2-11.2l4.4-6.3l1-1l1-1.5l6.8-12.2v4.4l8.8-13.2l6.3-18.5V86.8l-1.5-8.8l-3.4-1l-1.5-3.9l-5.4-9.3l-11.2-11.2h-2.9
		l-2.9-2.9h-3.4v-1.5h-5.9l2.4-1.5l-13.2-3.4l-18,5.4l-5.4,2.4h-6.8l-4.9,1l-2.4-2.4l-4.9,2.4h-2.4l7.3-5.4v-1.9l-5.4,2.4l-2-2
		l6.8-6.3h-3.4v-3.9l7.3-7.3l12.7-7.8h-9.8l-13.2,2l-17.1,5.9h-2l-13.7,7.3L61.5,48.8L52.3,61L38.1,90.3l-3.4,16.6V138h0.5v2.9
		l3.4,8.3l15.1,14.6l19.5,13.2l18,5.4L102.5,183.9z M58.6,55.2l17.1-17.1l13.7-9.3l-21.5,18L48.4,73.7v-1.5L58.6,55.2z M49.4,221.9
		h4.4l1-2v2.9h1.5v2h6.3l-3.9,1.5l-6.3-1.5L49.4,221.9z M53.7,39.1l7.3-5.9l17.6-9.3h-2l-16.1,7.8L53.7,39.1z M60.6,222.9h-2v-1
		L60.6,222.9z M73.2,226.8h2.4l-2.4-1h-1.5L73.2,226.8z M83.5,22v1l1-2h2.9L85,18.6L83.5,20l-2,1L83.5,22z M123,233.6l18.5-7.3
		l15.1-9.8l-8.3,3.4l-17.1,5.4l-28.3,4.4l-14.1-2l-1.5,1l2.9,1h-7.8l11.7,3.9H123z M84.5,228.3h1l1-1.5L84.5,228.3z M95.7,207.8h18
		l8.8-2.9h-1.9l-5.4,1l-21.9,1.5L95.7,207.8z M125.4,199.5l10.2-2.4l17.6-9.3h-4.9L125.4,199.5z M128.3,211.2h3.9l12.2-6.3
		l21.9-17.6l7.8-10.2l-4.9,2.9l-12.7,13.2l-8.3,5.9l-17.1,8.8h1l8.3-2.9l-2.9,2.9L128.3,211.2z M133.7,200l5.9-2.9h-3.4L133.7,200z
		 M192.7,63v-2l-2.9-5.9l-8.3-8.3l-5.4-3.9h-8.8v1l9.3,4.9L192.7,63z M167.4,191.2l9.3-9.3l9.8-11.7v-1.5l-10.7,13.2l-1.5,1
		L167.4,191.2z M168.8,194.1l2.9-2.4v2.4l2.4-6.3v3.4l2.4-4.4l7.8-7.8l10.7-16.6l-5.4,2.9l-3.9,7.8l-14.1,17.6l-2.9,1V194.1z
		 M175.6,173.2l4.4-2.4l2.4-3.9l-3.9,3.4L175.6,173.2z M187.4,216.1l-3.9,2l2.4-2H187.4z M185.9,183.9l14.1-19.5l4.4-11.2l-5.9,5.4
		l-8.3,15.6h1l-4.9,5.9l-0.5,1V183.9z M189.8,132.2l-2.4,2l1-2H189.8z M208.3,191.2l15.6-12.2l-5.4,7.8l-19,14.1l-9.8,4.9h-2.4v-1
		L208.3,191.2z M195.2,107.8v7.3l-3.9,12.2l-1.5,2.4v-1L195.2,107.8z M195.2,212.2l-2.4,2h-1.5l3.9-2.9V212.2z M192.7,160l1.5-3.9
		l-1.5,1.5V160z M197.6,79v21l-1,4.9V82L197.6,79z M196.6,155.1l2-2l2-3.4l-2.9,3.4L196.6,155.1z M205.4,205.8l-5.9,3.9l-1,1.5h-1
		l2-2.4L205.4,205.8z M211.2,201l-3.9,3.9v-1L211.2,201z M214.7,199l-1,1v-1H214.7z M233.2,180l-3.9,4.9l-11.7,12.2v-1.5L233.2,180z
		 M220.5,188.8l-2,2.4h-1l2-2.4H220.5z M219.5,119l2-1l2.9-9.3v-5.9l-2,7.3l-2.9,7.3V119z M229.3,176.1l2.9-5.9v-1l7.8-14.6
		l5.4-24.9l3.4-21.9h1.5v18l-1,6.3v7.8l6.3-18v4.9l-5.4,17.1L230.7,178l-6.8,6.8L229.3,176.1z M229.3,125.9v1.5l-1,0.5v-0.5
		L229.3,125.9z M231.7,104.9l2.9-6.3v-21l-2.4,10.2v1.5l-2.4,15.6H231.7z M231.7,123.9h-1l1-1V123.9z M240.5,170.2v2l-2,2l-2.9,4.4
		v-2L240.5,170.2z M248.8,157.1v2l-2.4,2.9l-2.9,5.9v-2.9L248.8,157.1z M253.2,149.3l-1.5,3.9v-2.4L253.2,149.3z M254.2,145.9l-1,1
		l1-2.9V145.9z"/>
</g>
</svg>
