<?xml version="1.0" encoding="utf-8"?>
<!-- Generator: Adobe Illustrator 23.0.2, SVG Export Plug-In . SVG Version: 6.00 Build 0)  -->
<svg version="1.1" id="Layer_1" xmlns="http://www.w3.org/2000/svg" xmlns:xlink="http://www.w3.org/1999/xlink" x="0px" y="0px"
	 viewBox="0 0 256 256" style="enable-background:new 0 0 256 256;" xml:space="preserve">
<style type="text/css">
	.st0{fill:#2C2E30;}
	.st1{fill:#00DCA4;}
	.st2{fill:#FF5C5B;}
</style>
<g>
	<path class="st1" d="M47.2,252.4l0.8,0.8l3.2-2.8v-4.8l1.6-1.2l0.8-0.8l-2.4-0.8l-1.6,1.6l-2.4,0.8l-2.4,2.4l-1.6-1.6l-1.2,1.2
		h-1.2v-1.6H40l-2,2l-1.6-2.4v-2.4l-1.6-1.6l-2.4,1.2v-2l-4.4-2.4l-1.6-2.4v-6.3l1.2-4l-2.4-5.9l2.4-15.1l3.6-7.1l4.4-13.5l5.2-12.3
		l6.3-8.7l2.4-5.2l1.6-1.6l2-4.4l2-2.4l4.4-7.5l5.2-5.5l2.8-4.4l6.3-8.3l2.4-2.4l-3.2-6.3l-0.8-2.8l-2.8-4.4L55.9,81.2v-2l4.4,8.3
		l2.4,2L61.4,86v-1.2l7.1,10.3h1.6v2.8l1.6-0.4l-0.8,0.8h1.2l0.8,3.6v1.6l0.8,0.8l6.7,10.7l2.4-2.4l-8.3-14.3l-0.8-0.8L65.4,82
		l-0.8-0.8l-0.8-2L54.3,65l-1.2-3.2h-1.6l-1.2-3.6v-4.8l-1.6,1.2l-3.6-9.5V42l1.6,3.6v-8.7l2-4.4l1.2-6.3l2-1.2l1.2-0.8l4-4.8
		l1.2,1.2l0.8,2h1.2l2-2h3.2v3.6l1.2,4h1.2l0.8-1.6h2.8l1.6,5.9l2,2l2.8-1.2l2.8,4.4l6.7,6.3l6.7,9.9v2.8h2.4v3.2h0.8l0.8,2l1.6,1.6
		l11.1,15.5l2.8-3.2l-8.7-11.5l-2.8-2.8v-0.8h-0.8l-3.2-4.4l0.8-0.8l0.8,0.4h0.8v-0.4l-1.6-1.6l-1.6,1.6v-0.8l-0.8-0.8v-0.4h1.6
		l-4-5.2v-1.2L86,38.4v-1.6l6.3,5.2l6.3,7.1l4.4,2l17.4,16.6l36.5-46.4l13.5-13.5l11.5-6.3h2.8L191,0l3.6,1.6l1.6,1.6l3.6,1.2v2.4
		l-0.8,0.8l-0.8-2H197l-2.4,2l5.2,2.4l1.2-1.6h2.4l-2.4,2l-1.2,4.4l-2.4,4.8l0.8,1.2l1.6-0.8l-2.8,5.9v1.6l-0.8,1.6l-4.4,13.9
		l-3.6,7.5l-0.4,2.4l-1.6,2.8l-4.8,12.3V69l-4,7.9l-1.6,4.4l-6.3,13.9l-2,3.2l-5.5,13.5l11.9,15.1l1.6,2.8l2.8,3.2l7.1,10.7
		l-1.2,1.2l5.5,7.1l5.5,5.2l0.8,1.6l0.8,0.8l0.8,1.2l3.2,6.7l5.2,7.1l3.2,10.3l7.1,12.7l2.8,3.2v4l1.2,4.4v1.2l2.8,5.2l-1.2,1.2
		l-1.6,0.8v1.6l-0.8-0.8v-2.4l-1.2,0.8l0.8-1.2h-2l-6.3-9.5l-0.8,0.8v2.8l-2.4-0.4l-1.2-1.6h-2.4l1.6,2.8v2.8l7.1,8.3v2l-4.8-4.8
		l-1.6,2.8l-2.4,0.4l-0.8,1.6l-0.8,0.8v1.6l-0.8,0.8v1.2h-0.8l-0.4-0.4l-1.2,0.8l7.5,7.9v2.4h-0.4l-6.7-6.7h-3.6v-2.4l-9.9-5.2
		l-4-2.8v2l-1.6,0.8l-0.8-0.8v-1.6h-2.4l-9.1-6.3l-1.6,0.4l0.8-1.2l-7.1-5.2l-2.4-0.4l-2-1.6l-4.8-1.2l-3.2-3.6l-3.6-2l-13.1-9.9
		l-1.6-2.8h-1.2l-6.3-6.3l-1.6,3.2l19,18.2h-1.2v0.8l4.4,5.2h-1.6l-0.8-0.8l-1.2-0.8l-0.8-0.8l-19.4-19l-1.2,1.2l-3.2,5.9l-0.4-2
		l1.2-3.2h-0.8l-2.4,4.4v2.4l1.2,0.4l-2,2.4l-2,4l-8.7,11.1l-3.2,2.4l-2.4,5.9l-2.4,2.4l2.4-3.6v-0.8l-7.9,8.3H86v-0.8l-10.7,16.2
		l-8.3,5.5h-5.5l-2-0.8l-2.8,1.6l-3.2,0.8l-5.2,4.8l-1.2-1.2V252.4z M51.9,44v-2.8h-0.8v1.6L51.9,44z M57.5,65.4l-4.8-9.9v2l3.2,6.7
		L57.5,65.4z M55.1,53.9v-0.4l-0.8-1.6v1.6L55.1,53.9z M54.3,242.5l4.8-5.2h-3.2l-1.6,1.6V242.5z M57.5,72.9l1.6,2.4v1.6l-1.6-2.4
		V72.9z M58.3,78.5h-0.8v-0.8L58.3,78.5z M67.8,80v-1.6L60.2,65v1.6l6.3,11.9L67.8,80z M63,246.9l3.6-1.2v-1.6l3.6-1.6l7.1-5.9
		l2-4.4l-3.2,1.6l-8.7,8.7l-5.5,3.2L63,246.9z M64.6,92.3v-0.8h-0.8L64.6,92.3z M69.4,251.6l-3.6,2.4h-0.4l2.8-2.4H69.4z M66.6,23.4
		V25l-0.8-1.6H66.6z M66.6,96.7v-0.8l-0.8-1.6v1.6L66.6,96.7z M67.8,101.1l0.8-1.2v-1.6L67,97.1l0.8,2.8V101.1z M85.6,109l-2-6.7
		L68.6,80v1.6l15.9,26.2L85.6,109z M71.7,107v-2.4l-2.4-2v2L71.7,107z M71.7,25v0.8L70.9,25H71.7z M72.9,248.9l-2,1.6l1.2-1.6H72.9z
		 M74.5,39.2v-3.6h-1.6v2L74.5,39.2z M77.7,245.7l-3.2,1.6h-0.8l2.4-1.6H77.7z M78.9,242.5l-0.8,1.2v-0.8L78.9,242.5z M79.7,230.2
		l4-4l-4,2.4V230.2z M84.4,238.2l-1.2,1.6l1.2-3.2V238.2z M90.8,221.1l1.6-1.6l1.6-3.2l-1.6,1.6L90.8,221.1z M96.3,216l4.8-6.7
		l2.4-2.4l6.3-10.3l0.8-0.4l1.2-4l-6.3,9.5l-3.2,2.8v1.2l-2,2.4L96.3,216z M97.9,215.2l1.6-1.2h-0.8L97.9,215.2z M100.3,212.4
		l0.8-1.6l-0.8,0.8V212.4z M103.8,59.8V59l-1.6-1.6h-0.4L103.8,59.8z M103.8,199.3l3.2-2.8v-1.2l-3.2,2.8V199.3z M103.8,208l4.8-5.5
		l2-5.9l-5.9,9.9l-0.8,0.8V208z M105.4,61.4v-0.8h-0.8L105.4,61.4z M108.6,65v-0.8l-1.6-1.6v0.8L108.6,65z M107.8,194.2l2.8-4.4
		l2-1.2l4-4.8h-1.6l-2.4,1.6l-0.8,2.4l-2,1.6l-2,3.6V194.2z M109.8,66.6v-0.8H109L109.8,66.6z M111.8,69h0.8l-0.8-0.8H111L111.8,69z
		 M117.3,179.9h0.8l0.8-2h-1.6V179.9z M121.7,172l0.8-0.4v-0.8l-0.8,0.8V172z M143.9,193v-1.6l-6.7-5.9l-3.6-2l-6.7-8.7l-1.2,3.2
		l5.5,5.9l4.4,2.4L143.9,193z M145.5,210.8l-0.8-2.8l-4-3.6v-1.6l4.8,3.6l2.8,3.6l-1.6,1.6V210L145.5,210.8z M151.8,198.1l-4.4-4.4
		h-1.6l4.8,4.4H151.8z M149.8,129.2h0.8l0.8-2.4h-0.8L149.8,129.2z M162.1,143.5h0.8v-1.6l-2.4-1.6v-2.4l-6.7-8.7l-1.2,1.2v2.4
		l1.6,1.6l0.4,1.2l3.2,3.2L162.1,143.5z M157.7,25.8l4.4-4.4v-1.2L157.7,25.8z M158.1,104.2l2.4-5.2l-2.4,2.8V104.2z M162.1,153.8
		l0.8-0.8l-1.2-3.2l-1.6,1.6L162.1,153.8z M162.9,154.9h0.8l0.4-0.8h-1.2V154.9z M164.9,92.3l2-3.2v-0.8l-2,3.2V92.3z M172.4,76.1
		l0.8-1.6v-0.8l-0.8,1.6V76.1z M186.3,9.1l0.8-0.8V7.5l-0.8,0.8V9.1z M194.2,4V2.4h-3.6L194.2,4z M191.8,35.7v-0.8l-1.2,1.6
		L191.8,35.7z M200.9,193.8V193l-1.2-1.6v0.8L200.9,193.8z M204.9,194.6V193l-3.2-2.8v1.2L204.9,194.6z M206.5,196.6v-0.4l-0.8-0.8
		v0.8L206.5,196.6z M213.2,223.9h0.8l1.6,1.6v1.6l-2.4-2.4V223.9z M221.9,220.3l0.8,0.8v0.4l-0.8-0.4V220.3z"/>
</g>
</svg>
